<svg xmlns="http://www.w3.org/2000/svg" viewBox="0 0 100 120" fill="none" stroke="currentColor" stroke-linecap="round" stroke-linejoin="round"><path d="M38 22c6 5 6 14 0 20"/><path d="M44 14c10 9 10 24 0 34"/><path d="M50 6c15 13 15 34 0 48"/><rect x="30" y="36" width="30" height="54" rx="5"/><line x1="40" y1="42" x2="54" y2="42"/><path d="M30 60C26 58 20 56 18 62 16 68 14 72 14 78"/><path d="M60 52C64 50 68 50 70 54 72 58 72 62 70 68"/><path d="M70 68C68 72 68 76 66 80"/><path d="M60 60C64 62 68 66 68 72"/><path d="M60 68C62 70 64 74 64 78"/><path d="M14 78C14 84 16 92 22 96 26 98 30 96 30 90"/></svg>
